<mxfile host="app.diagrams.net" modified="2024-03-12T13:35:44.582Z" agent="Mozilla/5.0 (Macintosh; Intel Mac OS X 10_15_7) AppleWebKit/537.36 (KHTML, like Gecko) Chrome/122.0.0.0 Safari/537.36" etag="RlobXHUCdsVB9uSa7kkT" version="23.1.7" type="github">
  <diagram name="第 1 页" id="c1dAT06nx32fKK7XMDw2">
    <mxGraphModel dx="954" dy="339" grid="0" gridSize="10" guides="1" tooltips="1" connect="1" arrows="1" fold="1" page="0" pageScale="1" pageWidth="200000" pageHeight="200000" math="0" shadow="0">
      <root>
        <mxCell id="0" />
        <mxCell id="1" parent="0" />
        <mxCell id="QsZ2117LCZ_TqmXQOzFA-41" value="" style="edgeStyle=none;curved=1;rounded=0;orthogonalLoop=1;jettySize=auto;html=1;fontSize=12;startSize=8;endSize=8;" edge="1" parent="1" source="QsZ2117LCZ_TqmXQOzFA-37" target="QsZ2117LCZ_TqmXQOzFA-40">
          <mxGeometry relative="1" as="geometry" />
        </mxCell>
        <mxCell id="QsZ2117LCZ_TqmXQOzFA-37" value="开始" style="rounded=1;whiteSpace=wrap;html=1;" vertex="1" parent="1">
          <mxGeometry x="143" y="444" width="120" height="60" as="geometry" />
        </mxCell>
        <mxCell id="QsZ2117LCZ_TqmXQOzFA-43" value="" style="edgeStyle=none;curved=1;rounded=0;orthogonalLoop=1;jettySize=auto;html=1;fontSize=12;startSize=8;endSize=8;" edge="1" parent="1" source="QsZ2117LCZ_TqmXQOzFA-40" target="QsZ2117LCZ_TqmXQOzFA-42">
          <mxGeometry relative="1" as="geometry" />
        </mxCell>
        <mxCell id="QsZ2117LCZ_TqmXQOzFA-48" value="" style="edgeStyle=none;curved=1;rounded=0;orthogonalLoop=1;jettySize=auto;html=1;fontSize=12;startSize=8;endSize=8;" edge="1" parent="1" source="QsZ2117LCZ_TqmXQOzFA-40" target="QsZ2117LCZ_TqmXQOzFA-47">
          <mxGeometry relative="1" as="geometry" />
        </mxCell>
        <mxCell id="QsZ2117LCZ_TqmXQOzFA-40" value="查询项目是否兑付时间" style="rhombus;whiteSpace=wrap;html=1;rounded=1;" vertex="1" parent="1">
          <mxGeometry x="163" y="614" width="80" height="80" as="geometry" />
        </mxCell>
        <mxCell id="QsZ2117LCZ_TqmXQOzFA-42" value="结束" style="whiteSpace=wrap;html=1;rounded=1;" vertex="1" parent="1">
          <mxGeometry x="343" y="624" width="120" height="60" as="geometry" />
        </mxCell>
        <mxCell id="QsZ2117LCZ_TqmXQOzFA-44" value="否" style="text;html=1;align=center;verticalAlign=middle;resizable=0;points=[];autosize=1;strokeColor=none;fillColor=none;fontSize=16;" vertex="1" parent="1">
          <mxGeometry x="267.5" y="615.5" width="34" height="31" as="geometry" />
        </mxCell>
        <mxCell id="QsZ2117LCZ_TqmXQOzFA-50" value="" style="edgeStyle=none;curved=1;rounded=0;orthogonalLoop=1;jettySize=auto;html=1;fontSize=12;startSize=8;endSize=8;" edge="1" parent="1" source="QsZ2117LCZ_TqmXQOzFA-47" target="QsZ2117LCZ_TqmXQOzFA-49">
          <mxGeometry relative="1" as="geometry" />
        </mxCell>
        <mxCell id="QsZ2117LCZ_TqmXQOzFA-52" value="" style="edgeStyle=none;curved=1;rounded=0;orthogonalLoop=1;jettySize=auto;html=1;fontSize=12;startSize=8;endSize=8;" edge="1" parent="1" source="QsZ2117LCZ_TqmXQOzFA-47" target="QsZ2117LCZ_TqmXQOzFA-51">
          <mxGeometry relative="1" as="geometry" />
        </mxCell>
        <mxCell id="QsZ2117LCZ_TqmXQOzFA-47" value="是否已兑付" style="rhombus;whiteSpace=wrap;html=1;rounded=1;" vertex="1" parent="1">
          <mxGeometry x="163" y="814" width="80" height="80" as="geometry" />
        </mxCell>
        <mxCell id="QsZ2117LCZ_TqmXQOzFA-49" value="结束" style="whiteSpace=wrap;html=1;rounded=1;" vertex="1" parent="1">
          <mxGeometry x="343" y="824" width="120" height="60" as="geometry" />
        </mxCell>
        <mxCell id="QsZ2117LCZ_TqmXQOzFA-54" value="" style="edgeStyle=none;curved=1;rounded=0;orthogonalLoop=1;jettySize=auto;html=1;fontSize=12;startSize=8;endSize=8;" edge="1" parent="1" source="QsZ2117LCZ_TqmXQOzFA-51" target="QsZ2117LCZ_TqmXQOzFA-53">
          <mxGeometry relative="1" as="geometry" />
        </mxCell>
        <mxCell id="QsZ2117LCZ_TqmXQOzFA-51" value="创建项目兑付记录" style="whiteSpace=wrap;html=1;rounded=1;" vertex="1" parent="1">
          <mxGeometry x="143" y="1024" width="120" height="60" as="geometry" />
        </mxCell>
        <mxCell id="QsZ2117LCZ_TqmXQOzFA-56" value="" style="edgeStyle=none;curved=1;rounded=0;orthogonalLoop=1;jettySize=auto;html=1;fontSize=12;startSize=8;endSize=8;" edge="1" parent="1" source="QsZ2117LCZ_TqmXQOzFA-53" target="QsZ2117LCZ_TqmXQOzFA-55">
          <mxGeometry relative="1" as="geometry" />
        </mxCell>
        <mxCell id="QsZ2117LCZ_TqmXQOzFA-53" value="计算用户兑付记录" style="whiteSpace=wrap;html=1;rounded=1;" vertex="1" parent="1">
          <mxGeometry x="143" y="1204" width="120" height="60" as="geometry" />
        </mxCell>
        <mxCell id="QsZ2117LCZ_TqmXQOzFA-58" value="" style="edgeStyle=none;curved=1;rounded=0;orthogonalLoop=1;jettySize=auto;html=1;fontSize=12;startSize=8;endSize=8;" edge="1" parent="1" source="QsZ2117LCZ_TqmXQOzFA-55" target="QsZ2117LCZ_TqmXQOzFA-57">
          <mxGeometry relative="1" as="geometry" />
        </mxCell>
        <mxCell id="QsZ2117LCZ_TqmXQOzFA-55" value="生成用户兑付记录" style="whiteSpace=wrap;html=1;rounded=1;" vertex="1" parent="1">
          <mxGeometry x="143" y="1384" width="120" height="60" as="geometry" />
        </mxCell>
        <mxCell id="QsZ2117LCZ_TqmXQOzFA-60" value="" style="edgeStyle=none;curved=1;rounded=0;orthogonalLoop=1;jettySize=auto;html=1;fontSize=12;startSize=8;endSize=8;" edge="1" parent="1" source="QsZ2117LCZ_TqmXQOzFA-57" target="QsZ2117LCZ_TqmXQOzFA-59">
          <mxGeometry relative="1" as="geometry" />
        </mxCell>
        <mxCell id="QsZ2117LCZ_TqmXQOzFA-57" value="资产发放" style="whiteSpace=wrap;html=1;rounded=1;" vertex="1" parent="1">
          <mxGeometry x="143" y="1564" width="120" height="60" as="geometry" />
        </mxCell>
        <mxCell id="QsZ2117LCZ_TqmXQOzFA-62" value="" style="edgeStyle=none;curved=1;rounded=0;orthogonalLoop=1;jettySize=auto;html=1;fontSize=12;startSize=8;endSize=8;" edge="1" parent="1" source="QsZ2117LCZ_TqmXQOzFA-59" target="QsZ2117LCZ_TqmXQOzFA-61">
          <mxGeometry relative="1" as="geometry" />
        </mxCell>
        <mxCell id="QsZ2117LCZ_TqmXQOzFA-59" value="更新用户兑付记录成功或失败&lt;br&gt;更新项目发放" style="whiteSpace=wrap;html=1;rounded=1;" vertex="1" parent="1">
          <mxGeometry x="143" y="1744" width="120" height="60" as="geometry" />
        </mxCell>
        <mxCell id="QsZ2117LCZ_TqmXQOzFA-61" value="结束" style="whiteSpace=wrap;html=1;rounded=1;" vertex="1" parent="1">
          <mxGeometry x="143" y="1924" width="120" height="60" as="geometry" />
        </mxCell>
      </root>
    </mxGraphModel>
  </diagram>
</mxfile>
